<svg xmlns="http://www.w3.org/2000/svg" viewBox="314 271 600 600" width="512" height="512">
  <title>WeatherGPT</title>
  <defs>
    <path id="cloudShape" d="M790 596.9 C788.4 596.9 783.2 596.9 780.3 597 C777.5 597 775.1 597.1 773 597.2 C770.9 597.2 769.7 597.3 768 597.3 C766.3 597.3 764.7 597.2 763 597.2 C761.3 597.2 759.7 597.2 758 597.2 C756.3 597.2 754.7 597.2 753 597.2 C751.3 597.2 749.7 597.2 748 597.2 C746.3 597.2 744.7 597.3 743 597.3 C741.3 597.3 739.7 597.3 738 597.3 C736.3 597.4 734.7 597.3 733 597.3 C731.3 597.4 729.7 597.5 728 597.8 C726.3 598.1 724.7 598.5 723 599.1 C721.3 599.6 719.6 600.3 718 601 C716.4 601.8 714.9 602.6 713.4 603.5 C711.9 604.4 710.4 605.6 709 606.6 C707.6 607.7 706.3 608.8 705 610 C703.7 611.2 702.3 612.6 701 614 C699.7 615.3 698.3 616.9 697 618.3 C695.7 619.6 694.6 620.7 693.3 621.9 C692.1 623.2 690.7 624.7 689.4 626 C688 627.2 686.6 628.4 685.2 629.6 C683.7 630.7 682.2 631.8 680.7 632.8 C679.2 633.9 677.6 634.8 676.1 635.7 C674.6 636.6 673.1 637.6 671.6 638.4 C670 639.2 668.4 639.9 666.8 640.5 C665.2 641.2 663.6 641.9 662 642.5 C660.4 643 658.8 643.6 657.2 644 C655.6 644.4 654 644.7 652.3 645.1 C650.6 645.4 648.6 645.8 646.8 646.1 C645 646.5 643.2 646.7 641.5 647 C639.8 647.2 638.1 647.4 636.3 647.5 C634.6 647.6 633 647.5 631.2 647.5 C629.4 647.5 627.4 647.5 625.6 647.5 C623.8 647.5 622.1 647.5 620.4 647.5 C618.7 647.5 617.1 647.5 615.3 647.5 C613.6 647.5 611.7 647.5 609.8 647.5 C608 647.5 606.3 647.4 604.5 647.5 C602.7 647.6 600.9 647.9 599.1 648 C597.4 648.2 595.6 648.3 593.8 648.5 C591.9 648.6 590 648.7 588.2 648.8 C586.4 649 584.8 649.2 583 649.5 C581.3 649.7 579.3 650 577.5 650.3 C575.8 650.5 574.2 650.7 572.4 651 C570.6 651.3 568.6 651.7 566.8 652.1 C565 652.4 563.4 652.8 561.6 653.1 C559.7 653.5 557.6 653.9 555.8 654.4 C553.9 654.8 552.3 655.2 550.4 655.7 C548.5 656.2 546.3 656.7 544.5 657.2 C542.6 657.6 541.1 658 539.2 658.5 C537.3 659.1 534.9 659.9 533.1 660.5 C531.2 661.1 529.8 661.5 528 662.1 C526.3 662.6 524.4 663.2 522.5 663.8 C520.6 664.4 518.7 665 516.6 665.6 C514.5 666.3 512.2 667 510 667.7 C507.7 668.4 504.9 669.2 502.9 669.8 C500.8 670.4 499.5 670.8 497.9 671.1 C496.3 671.5 494.7 671.9 493 672.2 C491.4 672.6 489.7 672.8 488 673.1 C486.3 673.5 484.6 673.8 482.9 674 C481.2 674.3 479.5 674.5 477.8 674.6 C476.1 674.8 474.8 675 472.7 675.1 C470.6 675.2 467.7 675.3 465.4 675.2 C463 675.1 460.7 675 458.4 674.7 C456.1 674.4 453.9 674.1 451.7 673.6 C449.5 673.2 447.3 672.8 445.2 672.2 C443 671.6 440.9 671 438.9 670.3 C436.9 669.6 434.9 668.8 433.1 667.9 C431.2 667 429.4 666.1 427.8 665 C426.1 664 424.6 662.9 423.1 661.7 C421.6 660.5 420.2 659.2 418.9 657.9 C417.5 656.7 416.2 655.3 415 653.9 C413.8 652.6 412.6 651.1 411.6 649.6 C410.6 648.1 409.7 646.6 408.8 645 C407.9 643.5 407.1 641.9 406.4 640.3 C405.6 638.6 404.9 637 404.3 635.3 C403.8 633.6 403.2 631.9 402.8 630.2 C402.4 628.5 402.1 626.7 401.9 625 C401.7 623.2 401.6 621.4 401.6 619.6 C401.5 617.8 401.5 616 401.6 614.2 C401.7 612.5 401.8 610.6 402.1 608.9 C402.3 607.1 402.7 605.3 403.2 603.5 C403.6 601.7 404.2 599.9 404.8 598.1 C405.4 596.3 406.1 594.6 406.9 592.8 C407.7 591.1 408.5 589.4 409.5 587.6 C410.4 585.9 411.4 584.3 412.5 582.6 C413.5 581 414.7 579.3 415.9 577.8 C417.1 576.2 418.4 574.6 419.7 573.1 C421.1 571.6 422.6 570.1 424.2 568.6 C425.8 567.2 427.5 565.8 429.2 564.5 C430.9 563.1 432.7 561.8 434.6 560.6 C436.5 559.4 438.4 558.2 440.5 557 C442.6 555.9 445.1 554.7 446.9 553.9 C448.8 553 450.1 552.6 451.8 552 C453.4 551.5 455 550.9 456.6 550.4 C458.3 549.9 460.1 549.4 461.9 549 C463.8 548.5 465.6 548.1 467.6 547.8 C469.5 547.4 471.6 547.2 473.7 546.9 C475.7 546.7 477.8 546.5 479.8 546.3 C481.8 546.1 484 546 485.6 545.7 C487.1 545.4 488.6 544.8 489.2 544.6 C489.4 543.7 489.9 540.9 490.3 539 C490.7 537.1 491.2 535.2 491.6 533.4 C492.1 531.6 492.6 529.7 493.2 527.9 C493.7 526.1 494.3 524.3 494.9 522.5 C495.6 520.7 496.2 518.9 496.9 517.2 C497.6 515.4 498.4 513.7 499.2 511.9 C499.9 510.2 500.7 508.5 501.6 506.8 C502.4 505.1 503.3 503.5 504.2 501.8 C505.2 500.2 506.2 498.5 507.2 496.9 C508.2 495.3 509.2 493.8 510.3 492.2 C511.4 490.7 512.6 489.2 513.8 487.7 C514.9 486.2 516.1 484.8 517.4 483.4 C518.6 481.9 519.9 480.5 521.2 479.2 C522.6 477.8 523.9 476.5 525.3 475.2 C526.7 474 528.1 472.7 529.6 471.5 C531 470.3 532.5 469.1 534 468 C535.6 466.9 537.1 465.8 538.7 464.7 C540.3 463.7 541.9 462.7 543.5 461.7 C545.1 460.7 546.7 459.8 548.4 458.9 C550.1 458 551.8 457.2 553.5 456.4 C555.2 455.6 557 454.9 558.7 454.2 C560.5 453.5 562.3 452.8 564 452.2 C565.8 451.6 567.6 451 569.5 450.5 C571.3 450 573.1 449.5 575 449.1 C576.8 448.7 578.6 448.3 580.5 448 C582.4 447.6 584.2 447.4 586.1 447.1 C588 446.9 589.9 446.7 591.8 446.6 C593.7 446.4 595.6 446.4 597.4 446.3 C599.3 446.3 601.2 446.3 603.1 446.4 C605 446.4 606.9 446.6 608.8 446.7 C610.7 446.9 612.5 447.1 614.4 447.4 C616.3 447.6 618.2 447.9 620 448.3 C621.9 448.6 623.7 449 625.5 449.5 C627.4 450 629.2 450.5 631 451 C632.8 451.5 634.6 452.1 636.4 452.8 C638.2 453.4 639.9 454.1 641.7 454.8 C643.4 455.6 645.2 456.3 646.9 457.2 C648.6 458 650.3 458.9 651.9 459.8 C653.6 460.7 655.2 461.6 656.8 462.6 C658.4 463.6 660 464.7 661.6 465.7 C663.1 466.8 664.6 467.9 666.1 469.1 C667.6 470.2 669.1 471.4 670.5 472.7 C672 473.9 673.4 475.2 674.7 476.5 C676.1 477.8 677.5 479.1 678.8 480.5 C680 481.9 681.3 483.3 682.5 484.7 C683.8 486.1 685 487.6 686.1 489.1 C687.3 490.6 688.4 492.2 689.4 493.7 C690.5 495.3 691.5 496.8 692.5 498.5 C693.5 500.1 694.5 501.7 695.4 503.4 C696.3 505 697.1 506.7 698 508.4 C698.8 510.1 699.5 511.9 700.3 513.6 C701 515.4 701.7 517.1 702.3 518.9 C703 520.7 703.6 522.5 704.1 524.3 C704.7 526.1 705.2 527.9 705.7 529.7 C706.2 531.6 706.7 533.4 707.1 535.2 C707.5 537.1 707.9 538.9 708.3 540.8 C708.7 542.7 709 544.6 709.3 546.5 C709.6 548.4 709.8 550.3 710 552.2 C710.2 554.1 710.5 557 710.6 557.9 C711.2 558.5 712.8 560.6 714.1 561.1 C715.3 561.5 716.7 560.8 718.1 560.6 C719.4 560.3 720.7 560 722.1 559.6 C723.4 559.2 724.7 558.6 726.1 558.2 C727.4 557.8 728.7 557.4 730.1 557 C731.4 556.7 732.7 556.4 734.1 556.1 C735.4 555.8 736.7 555.7 738.1 555.5 C739.4 555.2 740.7 554.9 742.1 554.7 C743.4 554.4 744.7 554.1 746.1 553.8 C747.4 553.6 748.7 553.5 750.1 553.3 C751.4 553.2 752.7 553.1 754.1 553 C755.4 552.9 756.7 552.9 758.1 552.8 C759.4 552.8 760.7 552.8 762.1 552.7 C763.4 552.7 764.7 552.6 766.1 552.6 C767.4 552.5 768.7 552.5 770.1 552.5 C771.4 552.5 772.7 552.6 774.1 552.8 C775.4 552.9 776.7 553.2 778.1 553.3 C779.4 553.5 780.7 553.5 782.1 553.7 C783.4 553.9 784.7 554 786.1 554.2 C787.4 554.5 788.7 554.8 790.1 555.1 C791.4 555.4 792.7 555.7 794.1 555.9 C795.4 556.2 796.7 556.4 798.1 556.8 C799.4 557.1 800.7 557.5 802.1 558 C803.4 558.4 804.7 559 806.1 559.5 C807.4 560 808.7 560.5 810.1 561.1 C811.4 561.7 812.7 562.2 814.1 562.9 C815.4 563.5 816.7 564.2 818.1 565 C819.4 565.7 820.7 566.4 822.1 567.1 C823.4 567.9 824.7 568.6 826.1 569.3 C827.4 570.1 828.5 570.6 830.1 571.6 C831.6 572.7 834 574.7 835.5 575.9 C837 577.1 837.8 577.9 839 578.9 C840.1 579.9 841.3 580.9 842.4 581.9 C843.6 582.9 844.7 583.9 845.9 584.9 C847 585.9 848.2 587 849.2 588 C850.3 589 851.1 589.8 852.1 591 C853.1 592.2 854.2 593.7 855.3 595 C856.4 596.3 857.5 597.7 858.5 599 C859.5 600.3 860.3 601.7 861.2 603 C862.2 604.3 863.4 605.7 864.2 607 C865.1 608.3 865.6 609.7 866.3 611 C867 612.3 867.9 613.7 868.6 615 C869.3 616.3 869.8 617.7 870.5 619 C871.1 620.3 871.9 621.7 872.5 623 C873.2 624.3 873.8 625.7 874.4 627 C875 628.3 875.5 629.7 876 631 C876.5 632.3 876.7 633.7 877.2 635 C877.7 636.3 878.4 637.7 878.9 639 C879.3 640.3 879.7 641.7 880.1 643 C880.5 644.3 881 645.7 881.2 647 C881.5 648.3 881.5 649.7 881.6 651 C881.8 652.3 881.9 653.7 882.2 655 C882.4 656.3 882.8 657.7 883 659 C883.3 660.3 883.6 661.7 883.7 663 C883.9 664.3 883.8 665.5 883.9 667 C884 668.5 884 670.2 884.3 672.3 C884.5 674.4 885.3 678.3 885.5 679.5 C885.8 678.5 886.9 675.8 887.6 673.7 C888.3 671.6 889.2 669 889.8 667 C890.4 665.1 890.7 663.6 891.1 661.9 C891.6 660.2 891.9 658.5 892.3 656.8 C892.6 655 892.9 653.3 893.2 651.5 C893.4 649.8 893.7 648.1 893.9 646.3 C894.1 644.6 894.2 642.8 894.4 641 C894.5 639.3 894.6 637.5 894.6 635.8 C894.6 634 894.6 632.2 894.5 630.4 C894.4 628.6 894.3 626.9 894.1 625.1 C894 623.3 893.8 621.6 893.6 619.8 C893.4 618 893.3 616.3 893 614.5 C892.7 612.7 892.3 611 891.9 609.2 C891.6 607.5 891.1 605.7 890.6 604 C890.2 602.2 889.6 600.5 889.1 598.8 C888.5 597.1 888 595.3 887.3 593.6 C886.7 591.9 886 590.2 885.3 588.6 C884.6 586.9 883.9 585.2 883.1 583.5 C882.3 581.9 881.5 580.2 880.6 578.6 C879.8 577 878.9 575.4 878 573.8 C877.1 572.2 876.1 570.6 875.1 569 C874.1 567.5 873.1 565.9 872.1 564.4 C871 562.9 869.9 561.4 868.8 559.9 C867.6 558.4 866.4 556.9 865.2 555.5 C863.9 554.1 862.7 552.6 861.4 551.2 C860.1 549.8 858.7 548.5 857.3 547.1 C855.9 545.8 854.6 544.5 853.2 543.2 C851.7 541.9 850.3 540.6 848.8 539.4 C847.3 538.1 845.8 536.9 844.2 535.7 C842.6 534.5 841 533.4 839.3 532.3 C837.6 531.2 836 530.1 834.2 529 C832.5 528 830.6 527 828.8 526 C827 525 825.2 524.1 823.3 523.2 C821.4 522.3 819.5 521.4 817.5 520.6 C815.5 519.8 813.5 519 811.4 518.3 C809.3 517.6 807.1 516.9 804.9 516.3 C802.7 515.6 800.6 515 798.4 514.5 C796.2 513.9 794 513.4 791.6 513 C789.2 512.6 786.7 512.2 784.3 511.9 C781.8 511.6 779.3 511.4 776.7 511.2 C774.1 511 770.8 511 768.8 510.9 C766.8 510.8 766 510.9 764.7 510.9 C763.3 510.9 762.5 511 760.6 511 C758.7 511 754.8 511 753.2 510.9 C751.7 510.7 751.7 510.2 751.5 510.1 C751.2 509.1 750.5 506.2 750 504.3 C749.5 502.3 748.9 500.4 748.3 498.5 C747.7 496.6 747 494.7 746.3 492.9 C745.6 491 744.9 489.1 744.1 487.2 C743.3 485.3 742.4 483.5 741.5 481.7 C740.7 479.8 739.8 478 738.9 476.2 C737.9 474.3 737 472.5 735.9 470.8 C734.9 469 733.7 467.3 732.5 465.6 C731.4 464 730.1 462.3 728.9 460.7 C727.7 459 726.5 457.3 725.3 455.6 C724 454 722.7 452.4 721.4 450.8 C720 449.3 718.5 447.8 717.1 446.3 C715.6 444.8 714.2 443.3 712.7 441.9 C711.2 440.4 709.8 438.9 708.2 437.5 C706.7 436.1 705.1 434.8 703.4 433.4 C701.8 432.1 700.1 430.9 698.5 429.6 C696.8 428.4 695.1 427.1 693.4 425.9 C691.7 424.6 690 423.4 688.2 422.2 C686.4 421.1 684.6 420 682.8 419 C681 418 679.1 417 677.2 416 C675.3 415 673.5 414.1 671.6 413.1 C669.7 412.2 667.7 411.4 665.8 410.6 C663.8 409.8 661.8 409 659.8 408.3 C657.9 407.6 655.9 406.8 653.9 406.1 C651.9 405.4 649.8 404.8 647.8 404.2 C645.8 403.6 643.7 403.1 641.7 402.6 C639.6 402.1 637.5 401.8 635.4 401.4 C633.3 401 631.2 400.7 629.1 400.4 C627 400.1 624.9 399.9 622.8 399.7 C620.7 399.4 618.6 399.3 616.5 399.1 C614.4 398.9 612.3 398.6 610.2 398.5 C608.1 398.4 606 398.4 603.9 398.4 C601.7 398.5 599.6 398.5 597.5 398.6 C595.4 398.7 593.3 398.8 591.2 399 C589.1 399.2 587 399.4 584.9 399.7 C582.8 399.9 580.7 400.2 578.6 400.5 C576.6 400.8 574.5 401.1 572.4 401.5 C570.4 401.9 568.3 402.3 566.2 402.8 C564.2 403.3 562.2 403.9 560.2 404.5 C558.2 405.1 556.1 405.7 554.2 406.3 C552.2 407 550.2 407.7 548.2 408.4 C546.3 409.1 544.3 409.8 542.4 410.6 C540.5 411.4 538.6 412.3 536.7 413.2 C534.8 414.1 533 415 531.1 416 C529.3 416.9 527.4 417.8 525.6 418.9 C523.8 419.9 522 421 520.3 422.1 C518.5 423.2 516.8 424.3 515.1 425.5 C513.4 426.6 511.7 427.8 510.1 429 C508.4 430.2 506.8 431.5 505.2 432.8 C503.6 434 502 435.3 500.4 436.6 C498.9 438 497.4 439.3 495.9 440.7 C494.4 442.1 492.9 443.6 491.5 445 C490.1 446.5 488.7 448 487.4 449.5 C486 451 484.7 452.5 483.4 454 C482.2 455.6 481 457.2 479.8 458.8 C478.5 460.4 477.3 462 476.2 463.7 C475.1 465.3 474 467 472.9 468.7 C471.9 470.4 470.9 472.1 469.9 473.8 C469 475.6 468 477.3 467.1 479.1 C466.3 480.9 465.4 482.6 464.6 484.4 C463.7 486.2 462.9 487.9 462.2 489.8 C461.4 491.6 460.7 493.4 460.1 495.2 C459.4 497 458.8 498.6 458.2 500.7 C457.6 502.8 456.7 506.5 456.4 507.7 C455.3 508 452.2 508.9 449.9 509.4 C447.7 510 445.1 510.4 442.7 511 C440.2 511.5 437.8 512.2 435.5 512.9 C433.1 513.6 430.7 514.4 428.4 515.2 C426.1 516 423.9 516.9 421.7 517.9 C419.5 518.9 417.3 519.9 415.3 521 C413.2 522.2 411.2 523.4 409.2 524.6 C407.3 525.8 405.3 527.1 403.4 528.4 C401.5 529.8 399.7 531.2 397.9 532.6 C396.1 534 394.3 535.5 392.6 537 C391 538.6 389.3 540.2 387.8 541.8 C386.2 543.4 384.7 545.1 383.2 546.8 C381.8 548.5 380.5 550.3 379.1 552.1 C377.8 553.9 376.5 555.7 375.3 557.5 C374.1 559.4 372.9 561.3 371.8 563.2 C370.7 565.1 369.7 567.1 368.8 569.1 C367.9 571 367 573 366.2 574.9 C365.4 576.8 364.7 578.6 364 580.5 C363.3 582.4 362.7 584.2 362.1 586.2 C361.5 588.3 361 590.5 360.5 592.6 C360 594.7 359.6 596.8 359.3 599 C359 601.1 358.9 603.2 358.7 605.4 C358.5 607.6 358.4 610.1 358.3 612.1 C358.3 614.1 358.2 615.6 358.2 617.6 C358.2 619.6 358.3 621.8 358.4 624.1 C358.6 626.4 358.7 628.9 359 631.4 C359.3 633.8 359.8 636.3 360.3 638.8 C360.8 641.3 361.4 643.7 362.1 646.1 C362.8 648.5 362 649.9 364.5 653.2 C366.9 656.6 373 662.6 377 666.2 C380.9 669.9 384.4 672.3 388.1 675.2 C391.8 678.2 395.5 681 399.2 683.7 C402.9 686.5 406.6 689.2 410.3 691.8 C414 694.4 417.6 696.9 421.3 699.3 C424.9 701.7 428.6 704.1 432.2 706.4 C435.8 708.7 440.4 711.8 443 713 C445.6 714.2 446.3 713.4 448 713.4 C449.7 713.5 451.3 713.5 453 713.4 C454.7 713.4 456.2 713.4 458 713.3 C459.8 713.2 461.7 713 463.6 712.8 C465.4 712.6 467.2 712.2 469 711.9 C470.8 711.6 472.5 711.3 474.3 710.9 C476.1 710.5 478.2 710 480 709.6 C481.8 709.1 483.3 708.6 485 708.1 C486.7 707.6 488.3 706.9 490 706.3 C491.7 705.6 493.3 704.9 495 704.2 C496.7 703.6 498.3 703 500 702.2 C501.7 701.5 503.3 700.8 505 700 C506.7 699.1 508.3 698.2 510 697.3 C511.7 696.4 513.3 695.6 515 694.8 C516.7 694 518.3 693.3 520 692.5 C521.7 691.6 523.3 690.7 525 689.8 C526.7 688.9 528.3 688 530 687.1 C531.7 686.3 533.3 685.6 535 684.8 C536.7 684.1 538.3 683.2 540 682.5 C541.7 681.7 543.3 680.9 545 680.2 C546.7 679.5 548.3 678.8 550 678.1 C551.7 677.5 553.3 676.8 555 676.2 C556.7 675.5 558.3 674.9 560 674.2 C561.7 673.6 563.3 673 565 672.4 C566.7 671.8 568.3 671.3 570 670.8 C571.7 670.3 573.3 669.8 575 669.4 C576.7 669 578.3 668.6 580 668.2 C581.7 667.9 583.3 667.5 585 667.1 C586.7 666.7 588.3 666.3 590 666 C591.7 665.7 593.3 665.4 595 665.1 C596.7 664.8 598.3 664.6 600 664.4 C601.7 664.1 603.3 663.8 605 663.7 C606.7 663.5 608.3 663.6 610 663.5 C611.7 663.4 613.3 663.4 615 663.2 C616.7 663.1 618.3 662.9 620 662.8 C621.7 662.7 623.3 662.7 625 662.6 C626.7 662.6 628.3 662.6 630 662.6 C631.7 662.6 633.3 662.6 635 662.6 C636.7 662.6 638.2 662.6 640 662.5 C641.8 662.4 643.7 662.2 645.6 662 C647.5 661.7 649.5 661.4 651.4 661.1 C653.3 660.8 655.2 660.5 657 660.1 C658.8 659.7 660.3 659.3 662 658.8 C663.7 658.3 665.3 657.6 667 657 C668.7 656.4 670.3 655.8 672 655.1 C673.7 654.4 675.3 653.8 677 653 C678.7 652.2 680.3 651.2 682 650.3 C683.7 649.3 685.3 648.3 687 647.2 C688.7 646.1 690.5 644.8 692 643.6 C693.5 642.4 694.7 641.3 696 640.2 C697.3 639 698.7 637.9 700 636.7 C701.3 635.5 702.7 634.3 704 633 C705.3 631.8 706.6 630.5 708 629.1 C709.4 627.8 710.8 626.2 712.3 624.6 C713.8 623.1 715.4 621.4 716.9 620.1 C718.3 618.9 719.5 618.1 721 617.2 C722.5 616.3 724.3 615.5 726 614.8 C727.7 614.2 729.3 613.8 731 613.4 C732.7 613.1 734.3 612.9 736 612.8 C737.7 612.7 739.3 612.8 741 612.8 C742.7 612.8 744.3 612.8 746 612.8 C747.7 612.8 749.3 612.8 751 612.8 C752.7 612.8 754.3 612.8 756 612.8 C757.7 612.9 759.3 613 761 613.1 C762.7 613.2 764.2 613.4 766 613.3 C767.8 613.3 769.8 613 771.7 612.9 C773.6 612.8 774.6 612.8 777.6 612.8 C780.6 612.8 787.9 612.8 790 612.8 Z"/>
    <linearGradient id="bg" gradientUnits="userSpaceOnUse" x1="0" y1="0" x2="1254" y2="0"><stop offset="0" stop-color="#F5F9FF"/><stop offset="1" stop-color="#EAF3FE"/></linearGradient>
    <radialGradient id="bgCorner" gradientUnits="userSpaceOnUse" cx="0" cy="1254" r="620">
      <stop offset="0" stop-color="#020820" stop-opacity="0"/>
      <stop offset="1" stop-color="#020820" stop-opacity="0"/>
    </radialGradient>
    <radialGradient id="pool" gradientUnits="userSpaceOnUse" cx="615" cy="630" r="420">
      <stop offset="0" stop-color="#000A2A" stop-opacity="0"/>
      <stop offset="0.55" stop-color="#000A2A" stop-opacity="0"/>
      <stop offset="1" stop-color="#000A2A" stop-opacity="0"/>
    </radialGradient>
    <radialGradient id="holeLight" gradientUnits="userSpaceOnUse" cx="600" cy="545" r="130">
      <stop offset="0" stop-color="#03195A" stop-opacity="0"/>
      <stop offset="1" stop-color="#03195A" stop-opacity="0"/>
    </radialGradient>
    <radialGradient id="halo" gradientUnits="userSpaceOnUse" cx="620" cy="600" r="330">
      <stop offset="0" stop-color="#0A2E8A" stop-opacity="0"/>
      <stop offset="1" stop-color="#0A2E8A" stop-opacity="0"/>
    </radialGradient>
    <linearGradient id="cloud" gradientUnits="userSpaceOnUse" x1="440" y1="420" x2="770" y2="560"><stop offset="0" stop-color="#5FA9F7"/><stop offset="0.4" stop-color="#4FA3F7"/><stop offset="0.75" stop-color="#2F7FE6"/><stop offset="1" stop-color="#1E63D6"/></linearGradient>
    <linearGradient id="cloudRight" gradientUnits="userSpaceOnUse" x1="760" y1="505" x2="890" y2="690"><stop offset="0" stop-color="#2F7FE6"/><stop offset="0.5" stop-color="#1E63D6"/><stop offset="1" stop-color="#1450B5"/></linearGradient>
    <clipPath id="rightLobe"><path d="M790 450 L920 450 L920 720 L870 720 L862 612 L815 568 L760 562 L710.6 557.9 Q716 522 751.5 510.1 Z"/></clipPath>
    <radialGradient id="shine" gradientUnits="userSpaceOnUse" cx="560" cy="430" r="150">
      <stop offset="0" stop-color="#FFFFFF" stop-opacity="0.12"/>
      <stop offset="1" stop-color="#FFFFFF" stop-opacity="0"/>
    </radialGradient>
    <linearGradient id="cloudBase" gradientUnits="userSpaceOnUse" x1="360" y1="0" x2="760" y2="0"><stop offset="0" stop-color="#2F7FE6"/><stop offset="0.5" stop-color="#4FA3F7"/><stop offset="1" stop-color="#7DBAF8"/></linearGradient>
    <linearGradient id="baseFade" gradientUnits="userSpaceOnUse" x1="0" y1="600" x2="0" y2="660">
      <stop offset="0" stop-color="#fff" stop-opacity="0"/>
      <stop offset="1" stop-color="#fff" stop-opacity="1"/>
    </linearGradient>
    <mask id="baseMask" maskUnits="userSpaceOnUse" x="0" y="0" width="1254" height="1254">
      <rect x="330" y="560" width="470" height="200" fill="url(#baseFade)"/>
    </mask>
    <linearGradient id="trace" gradientUnits="userSpaceOnUse" x1="670" y1="0" x2="830" y2="0"><stop offset="0" stop-color="#7DBAF8"/><stop offset="0.5" stop-color="#4FA3F7"/><stop offset="1" stop-color="#2F7FE6"/></linearGradient>
    <linearGradient id="trace1" gradientUnits="userSpaceOnUse" x1="630" y1="0" x2="790" y2="0"><stop offset="0" stop-color="#7DBAF8"/><stop offset="1" stop-color="#4FA3F7"/></linearGradient>
    <linearGradient id="trace1Fade" gradientUnits="userSpaceOnUse" x1="590" y1="0" x2="680" y2="0">
      <stop offset="0" stop-color="#fff" stop-opacity="0"/>
      <stop offset="1" stop-color="#fff" stop-opacity="1"/>
    </linearGradient>
    <mask id="trace1Mask" maskUnits="userSpaceOnUse" x="0" y="0" width="1254" height="1254">
      <path d="M590 560 L800 560 L800 640 L590 675 Z" fill="url(#trace1Fade)"/>
    </mask>
    <linearGradient id="ring1" x1="0" y1="0" x2="1" y2="1"><stop offset="0" stop-color="#4FA3F7"/><stop offset="1" stop-color="#2F7FE6"/></linearGradient>
    <linearGradient id="ring2" x1="0" y1="0" x2="1" y2="1"><stop offset="0" stop-color="#2F7FE6"/><stop offset="1" stop-color="#1E63D6"/></linearGradient>
    <linearGradient id="ring3" x1="0" y1="0" x2="1" y2="1"><stop offset="0" stop-color="#1E63D6"/><stop offset="1" stop-color="#1450B5"/></linearGradient>
    <linearGradient id="waveA" gradientUnits="userSpaceOnUse" x1="435" y1="0" x2="822" y2="0"><stop offset="0" stop-color="#7DBAF8"/><stop offset="0.45" stop-color="#4FA3F7"/><stop offset="1" stop-color="#1E63D6"/></linearGradient>
    <linearGradient id="waveB" gradientUnits="userSpaceOnUse" x1="487" y1="0" x2="743" y2="0"><stop offset="0" stop-color="#7DBAF8"/><stop offset="0.5" stop-color="#4FA3F7"/><stop offset="1" stop-color="#1E63D6"/></linearGradient>
    <linearGradient id="sun" gradientUnits="userSpaceOnUse" x1="640" y1="380" x2="815" y2="505"><stop offset="0" stop-color="#FFCB4F"/><stop offset="0.5" stop-color="#FFBE33"/><stop offset="1" stop-color="#FFB21E"/></linearGradient>
    <radialGradient id="ray" gradientUnits="userSpaceOnUse" cx="670" cy="531" r="230"><stop offset="0" stop-color="#FFB21E"/><stop offset="1" stop-color="#FFCB4F"/></radialGradient>
    <linearGradient id="drop" gradientUnits="userSpaceOnUse" x1="350" y1="645" x2="390" y2="748"><stop offset="0" stop-color="#9CCBFA"/><stop offset="0.5" stop-color="#4FA3F7"/><stop offset="1" stop-color="#2F7FE6"/></linearGradient>
    <linearGradient id="gpt" gradientUnits="userSpaceOnUse" x1="731.1" y1="867.4" x2="917.4" y2="938.5"><stop offset="0" stop-color="#1E63D6"/><stop offset="1" stop-color="#1E63D6"/></linearGradient>
    <clipPath id="cloudClip"><use href="#cloudShape"/></clipPath>
    <filter id="soft" x="-10%" y="-10%" width="120%" height="120%"><feGaussianBlur stdDeviation="7"/></filter>
    <linearGradient id="ltFade" gradientUnits="userSpaceOnUse" x1="560" y1="0" x2="680" y2="0">
      <stop offset="0" stop-color="#fff"/>
      <stop offset="1" stop-color="#fff" stop-opacity="0"/>
    </linearGradient>
    <mask id="leftTopOnly" maskUnits="userSpaceOnUse" x="0" y="0" width="1254" height="1254">
      <rect x="0" y="0" width="1254" height="640" fill="url(#ltFade)"/>
    </mask>
    <mask id="sunCut" maskUnits="userSpaceOnUse" x="0" y="0" width="1254" height="1254">
      <rect width="1254" height="1254" fill="#fff"/>
      <path d="M751.5 510.1 C751.2 509.1 750.5 506.2 750 504.3 C749.5 502.3 748.9 500.4 748.3 498.5 C747.7 496.6 747 494.7 746.3 492.9 C745.6 491 744.9 489.1 744.1 487.2 C743.3 485.3 742.4 483.5 741.5 481.7 C740.7 479.8 739.8 478 738.9 476.2 C737.9 474.3 737 472.5 735.9 470.8 C734.9 469 733.7 467.3 732.5 465.6 C731.4 464 730.1 462.3 728.9 460.7 C727.7 459 726.5 457.3 725.3 455.6 C724 454 722.7 452.4 721.4 450.8 C720 449.3 718.5 447.8 717.1 446.3 C715.6 444.8 714.2 443.3 712.7 441.9 C711.2 440.4 709.8 438.9 708.2 437.5 C706.7 436.1 705.1 434.8 703.4 433.4 C701.8 432.1 700.1 430.9 698.5 429.6 C696.8 428.4 695.1 427.1 693.4 425.9 C691.7 424.6 690 423.4 688.2 422.2 C686.4 421.1 684.6 420 682.8 419 C681 418 679.1 417 677.2 416 C675.3 415 673.5 414.1 671.6 413.1 C669.7 412.2 667.7 411.4 665.8 410.6 C663.8 409.8 661.8 409 659.8 408.3 C657.9 407.6 655.9 406.8 653.9 406.1 C651.9 405.4 649.8 404.8 647.8 404.2 C645.8 403.6 643.7 403.1 641.7 402.6 C639.6 402.1 637.5 401.8 635.4 401.4 C633.3 401 631.2 400.7 629.1 400.4 C627 400.1 624.9 399.9 622.8 399.7 C620.7 399.4 618.6 399.3 616.5 399.1 C614.4 398.9 612.3 398.6 610.2 398.5 C608.1 398.4 606 398.4 603.9 398.4 C601.7 398.5 599.6 398.5 597.5 398.6 C595.4 398.7 593.3 398.8 591.2 399 C589.1 399.2 587 399.4 584.9 399.7 C582.8 399.9 580.7 400.2 578.6 400.5 C576.6 400.8 574.5 401.1 572.4 401.5 C570.4 401.9 568.3 402.3 566.2 402.8 C564.2 403.3 562.2 403.9 560.2 404.5 C558.2 405.1 556.1 405.7 554.2 406.3 C552.2 407 550.2 407.7 548.2 408.4 C546.3 409.1 544.3 409.8 542.4 410.6 C540.5 411.4 538.6 412.3 536.7 413.2 C534.8 414.1 533 415 531.1 416 C529.3 416.9 527.4 417.8 525.6 418.9 C523.8 419.9 522 421 520.3 422.1 C518.5 423.2 516.8 424.3 515.1 425.5 C513.4 426.6 511.7 427.8 510.1 429 C508.4 430.2 506.8 431.5 505.2 432.8 C503.6 434 502 435.3 500.4 436.6 C498.9 438 497.4 439.3 495.9 440.7 C494.4 442.1 492.9 443.6 491.5 445 C490.1 446.5 488.7 448 487.4 449.5 C486 451 484.7 452.5 483.4 454 C482.2 455.6 481 457.2 479.8 458.8 C478.5 460.4 477.3 462 476.2 463.7 C475.1 465.3 474 467 472.9 468.7 C471.9 470.4 470.9 472.1 469.9 473.8 C469 475.6 468 477.3 467.1 479.1 C466.3 480.9 465.4 482.6 464.6 484.4 C463.7 486.2 462.9 487.9 462.2 489.8 C461.4 491.6 460.7 493.4 460.1 495.2 C459.4 497 458.8 498.6 458.2 500.7 C457.6 502.8 456.7 506.5 456.4 507.7 C455.3 508 452.2 508.9 449.9 509.4 C447.7 510 445.1 510.4 442.7 511 C440.2 511.5 437.8 512.2 435.5 512.9 C433.1 513.6 430.7 514.4 428.4 515.2 C426.1 516 423.9 516.9 421.7 517.9 C419.5 518.9 417.3 519.9 415.3 521 C413.2 522.2 411.2 523.4 409.2 524.6 C407.3 525.8 405.3 527.1 403.4 528.4 C401.5 529.8 399.7 531.2 397.9 532.6 C396.1 534 394.3 535.5 392.6 537 C391 538.6 389.3 540.2 387.8 541.8 C386.2 543.4 384.7 545.1 383.2 546.8 C381.8 548.5 380.5 550.3 379.1 552.1 C377.8 553.9 376.5 555.7 375.3 557.5 C374.1 559.4 372.9 561.3 371.8 563.2 C370.7 565.1 369.7 567.1 368.8 569.1 C367.9 571 367 573 366.2 574.9 C365.4 576.8 364.7 578.6 364 580.5 C363.3 582.4 362.7 584.2 362.1 586.2 C361.5 588.3 361 590.5 360.5 592.6 C360 594.7 359.6 596.8 359.3 599 C359 601.1 358.9 603.2 358.7 605.4 C358.5 607.6 358.4 610.1 358.3 612.1 C358.3 614.1 358.2 615.6 358.2 617.6 C358.2 619.6 358.3 621.8 358.4 624.1 C358.6 626.4 358.7 628.9 359 631.4 C359.3 633.8 359.8 636.3 360.3 638.8 C360.8 641.3 361.4 643.7 362.1 646.1 C362.8 648.5 362 649.9 364.5 653.2 C366.9 656.6 373 662.6 377 666.2 C380.9 669.9 384.4 672.3 388.1 675.2 C391.8 678.2 395.5 681 399.2 683.7 C402.9 686.5 406.6 689.2 410.3 691.8 C414 694.4 417.6 696.9 421.3 699.3 C424.9 701.7 428.6 704.1 432.2 706.4 C435.8 708.7 440.4 711.8 443 713 C445.6 714.2 446.3 713.4 448 713.4 C449.7 713.5 451.3 713.5 453 713.4 C454.7 713.4 456.2 713.4 458 713.3 C459.8 713.2 461.7 713 463.6 712.8 C465.4 712.6 467.2 712.2 469 711.9 C470.8 711.6 472.5 711.3 474.3 710.9 C476.1 710.5 478.2 710 480 709.6 C481.8 709.1 483.3 708.6 485 708.1 C486.7 707.6 488.3 706.9 490 706.3 C491.7 705.6 493.3 704.9 495 704.2 C496.7 703.6 498.3 703 500 702.2 C501.7 701.5 503.3 700.8 505 700 C506.7 699.1 508.3 698.2 510 697.3 C511.7 696.4 513.3 695.6 515 694.8 C516.7 694 518.3 693.3 520 692.5 C521.7 691.6 523.3 690.7 525 689.8 C526.7 688.9 528.3 688 530 687.1 C531.7 686.3 533.3 685.6 535 684.8 C536.7 684.1 538.3 683.2 540 682.5 C541.7 681.7 543.3 680.9 545 680.2 C546.7 679.5 548.3 678.8 550 678.1 C551.7 677.5 553.3 676.8 555 676.2 C556.7 675.5 558.3 674.9 560 674.2 C561.7 673.6 563.3 673 565 672.4 C566.7 671.8 568.3 671.3 570 670.8 C571.7 670.3 573.3 669.8 575 669.4 C576.7 669 578.3 668.6 580 668.2 C581.7 667.9 583.3 667.5 585 667.1 C586.7 666.7 588.3 666.3 590 666 C591.7 665.7 593.3 665.4 595 665.1 C596.7 664.8 598.3 664.6 600 664.4 C601.7 664.1 603.3 663.8 605 663.7 C606.7 663.5 608.3 663.6 610 663.5 C611.7 663.4 613.3 663.4 615 663.2 C616.7 663.1 618.3 662.9 620 662.8 C621.7 662.7 623.3 662.7 625 662.6 C626.7 662.6 628.3 662.6 630 662.6 C631.7 662.6 633.3 662.6 635 662.6 C636.7 662.6 638.2 662.6 640 662.5 C641.8 662.4 643.7 662.2 645.6 662 C647.5 661.7 649.5 661.4 651.4 661.1 C653.3 660.8 655.2 660.5 657 660.1 C658.8 659.7 660.3 659.3 662 658.8 C663.7 658.3 665.3 657.6 667 657 C668.7 656.4 670.3 655.8 672 655.1 C673.7 654.4 675.3 653.8 677 653 C678.7 652.2 680.3 651.2 682 650.3 C683.7 649.3 685.3 648.3 687 647.2 C688.7 646.1 690.5 644.8 692 643.6 C693.5 642.4 694.7 641.3 696 640.2 C697.3 639 698.7 637.9 700 636.7 C701.3 635.5 702.7 634.3 704 633 C705.3 631.8 706.6 630.5 708 629.1 C709.4 627.8 710.8 626.2 712.3 624.6 C713.8 623.1 715.4 621.4 716.9 620.1 C718.3 618.9 719.5 618.1 721 617.2 C722.5 616.3 724.3 615.5 726 614.8 C727.7 614.2 729.3 613.8 731 613.4 C732.7 613.1 734.3 612.9 736 612.8 C737.7 612.7 739.3 612.8 741 612.8 C742.7 612.8 744.3 612.8 746 612.8 C747.7 612.8 749.3 612.8 751 612.8 C752.7 612.8 754.3 612.8 756 612.8 C757.7 612.9 759.3 613 761 613.1 C762.7 613.2 764.2 613.4 766 613.3 C767.8 613.3 769.8 613 771.7 612.9 C773.6 612.8 774.6 612.8 777.6 612.8 C780.6 612.8 772 601.7 790 612.8 C808 623.9 869.6 668.4 885.5 679.5 C885.8 678.5 886.9 675.8 887.6 673.7 C888.3 671.6 889.2 669 889.8 667 C890.4 665.1 890.7 663.6 891.1 661.9 C891.6 660.2 891.9 658.5 892.3 656.8 C892.6 655 892.9 653.3 893.2 651.5 C893.4 649.8 893.7 648.1 893.9 646.3 C894.1 644.6 894.2 642.8 894.4 641 C894.5 639.3 894.6 637.5 894.6 635.8 C894.6 634 894.6 632.2 894.5 630.4 C894.4 628.6 894.3 626.9 894.1 625.1 C894 623.3 893.8 621.6 893.6 619.8 C893.4 618 893.3 616.3 893 614.5 C892.7 612.7 892.3 611 891.9 609.2 C891.6 607.5 891.1 605.7 890.6 604 C890.2 602.2 889.6 600.5 889.1 598.8 C888.5 597.1 888 595.3 887.3 593.6 C886.7 591.9 886 590.2 885.3 588.6 C884.6 586.9 883.9 585.2 883.1 583.5 C882.3 581.9 881.5 580.2 880.6 578.6 C879.8 577 878.9 575.4 878 573.8 C877.1 572.2 876.1 570.6 875.1 569 C874.1 567.5 873.1 565.9 872.1 564.4 C871 562.9 869.9 561.4 868.8 559.9 C867.6 558.4 866.4 556.9 865.2 555.5 C863.9 554.1 862.7 552.6 861.4 551.2 C860.1 549.8 858.7 548.5 857.3 547.1 C855.9 545.8 854.6 544.5 853.2 543.2 C851.7 541.9 850.3 540.6 848.8 539.4 C847.3 538.1 845.8 536.9 844.2 535.7 C842.6 534.5 841 533.4 839.3 532.3 C837.6 531.2 836 530.1 834.2 529 C832.5 528 830.6 527 828.8 526 C827 525 825.2 524.1 823.3 523.2 C821.4 522.3 819.5 521.4 817.5 520.6 C815.5 519.8 813.5 519 811.4 518.3 C809.3 517.6 807.1 516.9 804.9 516.3 C802.7 515.6 800.6 515 798.4 514.5 C796.2 513.9 794 513.4 791.6 513 C789.2 512.6 786.7 512.2 784.3 511.9 C781.8 511.6 779.3 511.4 776.7 511.2 C774.1 511 770.8 511 768.8 510.9 C766.8 510.8 766 510.9 764.7 510.9 C763.3 510.9 762.5 511 760.6 511 C758.7 511 754.8 511 753.2 510.9 C751.7 510.7 751.7 510.2 751.5 510.1 Z" fill="#000" stroke="#000" stroke-width="22" stroke-linejoin="round"/>
      <path d="M560 1254 L560 560 L700 560 L775 503 L1254 540 L1254 1254 Z" fill="#000"/>
    </mask>
    <filter id="glow" x="-20%" y="-20%" width="140%" height="140%" color-interpolation-filters="sRGB">
      <feGaussianBlur in="SourceGraphic" stdDeviation="18" result="wb"/>
      <feColorMatrix in="wb" type="matrix" values="1 0 0 0 0  0 1 0 0 0  0 0 1 0 0  0 0 0 0 0" result="bloom"/>
      <feGaussianBlur in="SourceAlpha" stdDeviation="5" result="sb"/>
      <feFlood flood-color="#000820" flood-opacity="0"/>
      <feComposite in2="sb" operator="in" result="shadow"/>
      <feMerge><feMergeNode in="bloom"/><feMergeNode in="shadow"/><feMergeNode in="SourceGraphic"/></feMerge>
    </filter>
    <filter id="sunGlow" x="-30%" y="-30%" width="160%" height="160%" color-interpolation-filters="sRGB">
      <feGaussianBlur in="SourceGraphic" stdDeviation="16" result="wb"/>
      <feColorMatrix in="wb" type="matrix" values="1 0 0 0 0  0 1 0 0 0  0 0 1 0 0  0 0 0 0 0" result="bloom"/>
      <feGaussianBlur in="SourceAlpha" stdDeviation="5" result="sb"/>
      <feFlood flood-color="#000820" flood-opacity="0"/>
      <feComposite in2="sb" operator="in" result="shadow"/>
      <feMerge><feMergeNode in="bloom"/><feMergeNode in="shadow"/><feMergeNode in="SourceGraphic"/></feMerge>
    </filter>
  </defs>

  <!-- sun, behind the cloud -->
  <g filter="url(#sunGlow)">
    <path fill-rule="evenodd" fill="url(#sun)" mask="url(#sunCut)" d="M520 531 a150 150 0 1 0 300 0 a150 150 0 1 0 -300 0 Z M493 540 a147 147 0 1 0 294 0 a147 147 0 1 0 -294 0 Z"/>
    <g stroke="url(#ray)" stroke-width="25" stroke-linecap="round">
      <line x1="734" y1="326" x2="734" y2="365"/>
      <line x1="836" y1="360" x2="794" y2="398"/>
      <line x1="883" y1="441" x2="838" y2="456"/>
    </g>
  </g>

  <g filter="url(#glow)">
    <!-- cloud -->
    <use href="#cloudShape" fill="url(#cloud)"/>
    <use href="#cloudShape" fill="url(#cloudBase)" mask="url(#baseMask)"/>
    <use href="#cloudShape" fill="url(#cloudRight)" clip-path="url(#rightLobe)"/>
    <use href="#cloudShape" fill="url(#shine)"/>
    <use href="#cloudShape" fill="url(#trace1)" mask="url(#trace1Mask)"/>
    <!-- purer cyan along the inner edge of the left and top lobes, a touch lighter along the outer top -->
    <g clip-path="url(#cloudClip)">
      <path d="M790 596.9 C788.4 596.9 783.2 596.9 780.3 597 C777.5 597 775.1 597.1 773 597.2 C770.9 597.2 769.7 597.3 768 597.3 C766.3 597.3 764.7 597.2 763 597.2 C761.3 597.2 759.7 597.2 758 597.2 C756.3 597.2 754.7 597.2 753 597.2 C751.3 597.2 749.7 597.2 748 597.2 C746.3 597.2 744.7 597.3 743 597.3 C741.3 597.3 739.7 597.3 738 597.3 C736.3 597.4 734.7 597.3 733 597.3 C731.3 597.4 729.7 597.5 728 597.8 C726.3 598.1 724.7 598.5 723 599.1 C721.3 599.6 719.6 600.3 718 601 C716.4 601.8 714.9 602.6 713.4 603.5 C711.9 604.4 710.4 605.6 709 606.6 C707.6 607.7 706.3 608.8 705 610 C703.7 611.2 702.3 612.6 701 614 C699.7 615.3 698.3 616.9 697 618.3 C695.7 619.6 694.6 620.7 693.3 621.9 C692.1 623.2 690.7 624.7 689.4 626 C688 627.2 686.6 628.4 685.2 629.6 C683.7 630.7 682.2 631.8 680.7 632.8 C679.2 633.9 677.6 634.8 676.1 635.7 C674.6 636.6 673.1 637.6 671.6 638.4 C670 639.2 668.4 639.9 666.8 640.5 C665.2 641.2 663.6 641.9 662 642.5 C660.4 643 658.8 643.6 657.2 644 C655.6 644.4 654 644.7 652.3 645.1 C650.6 645.4 648.6 645.8 646.8 646.1 C645 646.5 643.2 646.7 641.5 647 C639.8 647.2 638.1 647.4 636.3 647.5 C634.6 647.6 633 647.5 631.2 647.5 C629.4 647.5 627.4 647.5 625.6 647.5 C623.8 647.5 622.1 647.5 620.4 647.5 C618.7 647.5 617.1 647.5 615.3 647.5 C613.6 647.5 611.7 647.5 609.8 647.5 C608 647.5 606.3 647.4 604.5 647.5 C602.7 647.6 600.9 647.9 599.1 648 C597.4 648.2 595.6 648.3 593.8 648.5 C591.9 648.6 590 648.7 588.2 648.8 C586.4 649 584.8 649.2 583 649.5 C581.3 649.7 579.3 650 577.5 650.3 C575.8 650.5 574.2 650.7 572.4 651 C570.6 651.3 568.6 651.7 566.8 652.1 C565 652.4 563.4 652.8 561.6 653.1 C559.7 653.5 557.6 653.9 555.8 654.4 C553.9 654.8 552.3 655.2 550.4 655.7 C548.5 656.2 546.3 656.7 544.5 657.2 C542.6 657.6 541.1 658 539.2 658.5 C537.3 659.1 534.9 659.9 533.1 660.5 C531.2 661.1 529.8 661.5 528 662.1 C526.3 662.6 524.4 663.2 522.5 663.8 C520.6 664.4 518.7 665 516.6 665.6 C514.5 666.3 512.2 667 510 667.7 C507.7 668.4 504.9 669.2 502.9 669.8 C500.8 670.4 499.5 670.8 497.9 671.1 C496.3 671.5 494.7 671.9 493 672.2 C491.4 672.6 489.7 672.8 488 673.1 C486.3 673.5 484.6 673.8 482.9 674 C481.2 674.3 479.5 674.5 477.8 674.6 C476.1 674.8 474.8 675 472.7 675.1 C470.6 675.2 467.7 675.3 465.4 675.2 C463 675.1 460.7 675 458.4 674.7 C456.1 674.4 453.9 674.1 451.7 673.6 C449.5 673.2 447.3 672.8 445.2 672.2 C443 671.6 440.9 671 438.9 670.3 C436.9 669.6 434.9 668.8 433.1 667.9 C431.2 667 429.4 666.1 427.8 665 C426.1 664 424.6 662.9 423.1 661.7 C421.6 660.5 420.2 659.2 418.9 657.9 C417.5 656.7 416.2 655.3 415 653.9 C413.8 652.6 412.6 651.1 411.6 649.6 C410.6 648.1 409.7 646.6 408.8 645 C407.9 643.5 407.1 641.9 406.4 640.3 C405.6 638.6 404.9 637 404.3 635.3 C403.8 633.6 403.2 631.9 402.8 630.2 C402.4 628.5 402.1 626.7 401.9 625 C401.7 623.2 401.6 621.4 401.6 619.6 C401.5 617.8 401.5 616 401.6 614.2 C401.7 612.5 401.8 610.6 402.1 608.9 C402.3 607.1 402.7 605.3 403.2 603.5 C403.6 601.7 404.2 599.9 404.8 598.1 C405.4 596.3 406.1 594.6 406.9 592.8 C407.7 591.1 408.5 589.4 409.5 587.6 C410.4 585.9 411.4 584.3 412.5 582.6 C413.5 581 414.7 579.3 415.9 577.8 C417.1 576.2 418.4 574.6 419.7 573.1 C421.1 571.6 422.6 570.1 424.2 568.6 C425.8 567.2 427.5 565.8 429.2 564.5 C430.9 563.1 432.7 561.8 434.6 560.6 C436.5 559.4 438.4 558.2 440.5 557 C442.6 555.9 445.1 554.7 446.9 553.9 C448.8 553 450.1 552.6 451.8 552 C453.4 551.5 455 550.9 456.6 550.4 C458.3 549.9 460.1 549.4 461.9 549 C463.8 548.5 465.6 548.1 467.6 547.8 C469.5 547.4 471.6 547.2 473.7 546.9 C475.7 546.7 477.8 546.5 479.8 546.3 C481.8 546.1 484 546 485.6 545.7 C487.1 545.4 488.6 544.8 489.2 544.6 C489.4 543.7 489.9 540.9 490.3 539 C490.7 537.1 491.2 535.2 491.6 533.4 C492.1 531.6 492.6 529.7 493.2 527.9 C493.7 526.1 494.3 524.3 494.9 522.5 C495.6 520.7 496.2 518.9 496.9 517.2 C497.6 515.4 498.4 513.7 499.2 511.9 C499.9 510.2 500.7 508.5 501.6 506.8 C502.4 505.1 503.3 503.5 504.2 501.8 C505.2 500.2 506.2 498.5 507.2 496.9 C508.2 495.3 509.2 493.8 510.3 492.2 C511.4 490.7 512.6 489.2 513.8 487.7 C514.9 486.2 516.1 484.8 517.4 483.4 C518.6 481.9 519.9 480.5 521.2 479.2 C522.6 477.8 523.9 476.5 525.3 475.2 C526.7 474 528.1 472.7 529.6 471.5 C531 470.3 532.5 469.1 534 468 C535.6 466.9 537.1 465.8 538.7 464.7 C540.3 463.7 541.9 462.7 543.5 461.7 C545.1 460.7 546.7 459.8 548.4 458.9 C550.1 458 551.8 457.2 553.5 456.4 C555.2 455.6 557 454.9 558.7 454.2 C560.5 453.5 562.3 452.8 564 452.2 C565.8 451.6 567.6 451 569.5 450.5 C571.3 450 573.1 449.5 575 449.1 C576.8 448.7 578.6 448.3 580.5 448 C582.4 447.6 584.2 447.4 586.1 447.1 C588 446.9 589.9 446.7 591.8 446.6 C593.7 446.4 595.6 446.4 597.4 446.3 C599.3 446.3 601.2 446.3 603.1 446.4 C605 446.4 606.9 446.6 608.8 446.7 C610.7 446.9 612.5 447.1 614.4 447.4 C616.3 447.6 618.2 447.9 620 448.3 C621.9 448.6 623.7 449 625.5 449.5 C627.4 450 629.2 450.5 631 451 C632.8 451.5 634.6 452.1 636.4 452.8 C638.2 453.4 639.9 454.1 641.7 454.8 C643.4 455.6 645.2 456.3 646.9 457.2 C648.6 458 650.3 458.9 651.9 459.8 C653.6 460.7 655.2 461.6 656.8 462.6 C658.4 463.6 660 464.7 661.6 465.7 C663.1 466.8 664.6 467.9 666.1 469.1 C667.6 470.2 669.1 471.4 670.5 472.7 C672 473.9 673.4 475.2 674.7 476.5 C676.1 477.8 677.5 479.1 678.8 480.5 C680 481.9 681.3 483.3 682.5 484.7 C683.8 486.1 685 487.6 686.1 489.1 C687.3 490.6 688.4 492.2 689.4 493.7 C690.5 495.3 691.5 496.8 692.5 498.5 C693.5 500.1 694.5 501.7 695.4 503.4 C696.3 505 697.1 506.7 698 508.4 C698.8 510.1 699.5 511.9 700.3 513.6 C701 515.4 701.7 517.1 702.3 518.9 C703 520.7 703.6 522.5 704.1 524.3 C704.7 526.1 705.2 527.9 705.7 529.7 C706.2 531.6 706.7 533.4 707.1 535.2 C707.5 537.1 707.9 538.9 708.3 540.8 C708.7 542.7 709 544.6 709.3 546.5 C709.6 548.4 709.8 550.3 710 552.2 C710.2 554.1 710.5 557 710.6 557.9 C711.2 558.5 712.8 560.6 714.1 561.1 C715.3 561.5 716.7 560.8 718.1 560.6 C719.4 560.3 720.7 560 722.1 559.6 C723.4 559.2 724.7 558.6 726.1 558.2 C727.4 557.8 728.7 557.4 730.1 557 C731.4 556.7 732.7 556.4 734.1 556.1 C735.4 555.8 736.7 555.7 738.1 555.5 C739.4 555.2 740.7 554.9 742.1 554.7 C743.4 554.4 744.7 554.1 746.1 553.8 C747.4 553.6 748.7 553.5 750.1 553.3 C751.4 553.2 752.7 553.1 754.1 553 C755.4 552.9 756.7 552.9 758.1 552.8 C759.4 552.8 760.7 552.8 762.1 552.7 C763.4 552.7 764.7 552.6 766.1 552.6 C767.4 552.5 768.7 552.5 770.1 552.5 C771.4 552.5 772.7 552.6 774.1 552.8 C775.4 552.9 776.7 553.2 778.1 553.3 C779.4 553.5 780.7 553.5 782.1 553.7 C783.4 553.9 784.7 554 786.1 554.2 C787.4 554.5 788.7 554.8 790.1 555.1 C791.4 555.4 792.7 555.7 794.1 555.9 C795.4 556.2 796.7 556.4 798.1 556.8 C799.4 557.1 800.7 557.5 802.1 558 C803.4 558.4 804.7 559 806.1 559.5 C807.4 560 808.7 560.5 810.1 561.1 C811.4 561.7 812.7 562.2 814.1 562.9 C815.4 563.5 816.7 564.2 818.1 565 C819.4 565.7 820.7 566.4 822.1 567.1 C823.4 567.9 824.7 568.6 826.1 569.3 C827.4 570.1 828.5 570.6 830.1 571.6 C831.6 572.7 834 574.7 835.5 575.9 C837 577.1 837.8 577.9 839 578.9 C840.1 579.9 841.3 580.9 842.4 581.9 C843.6 582.9 844.7 583.9 845.9 584.9 C847 585.9 848.2 587 849.2 588 C850.3 589 851.1 589.8 852.1 591 C853.1 592.2 854.2 593.7 855.3 595 C856.4 596.3 857.5 597.7 858.5 599 C859.5 600.3 860.3 601.7 861.2 603 C862.2 604.3 863.4 605.7 864.2 607 C865.1 608.3 865.6 609.7 866.3 611 C867 612.3 867.9 613.7 868.6 615 C869.3 616.3 869.8 617.7 870.5 619 C871.1 620.3 871.9 621.7 872.5 623 C873.2 624.3 873.8 625.7 874.4 627 C875 628.3 875.5 629.7 876 631 C876.5 632.3 876.7 633.7 877.2 635 C877.7 636.3 878.4 637.7 878.9 639 C879.3 640.3 879.7 641.7 880.1 643 C880.5 644.3 881 645.7 881.2 647 C881.5 648.3 881.5 649.7 881.6 651 C881.8 652.3 881.9 653.7 882.2 655 C882.4 656.3 882.8 657.7 883 659 C883.3 660.3 883.6 661.7 883.7 663 C883.9 664.3 883.8 665.5 883.9 667 C884 668.5 884 670.2 884.3 672.3 C884.5 674.4 885.3 678.3 885.5 679.5" fill="none" stroke="#B9DAFC" stroke-opacity="0.35" stroke-width="20" filter="url(#soft)" mask="url(#leftTopOnly)"/>
      <path d="M751.5 510.1 C751.2 509.1 750.5 506.2 750 504.3 C749.5 502.3 748.9 500.4 748.3 498.5 C747.7 496.6 747 494.7 746.3 492.9 C745.6 491 744.9 489.1 744.1 487.2 C743.3 485.3 742.4 483.5 741.5 481.7 C740.7 479.8 739.8 478 738.9 476.2 C737.9 474.3 737 472.5 735.9 470.8 C734.9 469 733.7 467.3 732.5 465.6 C731.4 464 730.1 462.3 728.9 460.7 C727.7 459 726.5 457.3 725.3 455.6 C724 454 722.7 452.4 721.4 450.8 C720 449.3 718.5 447.8 717.1 446.3 C715.6 444.8 714.2 443.3 712.7 441.9 C711.2 440.4 709.8 438.9 708.2 437.5 C706.7 436.1 705.1 434.8 703.4 433.4 C701.8 432.1 700.1 430.9 698.5 429.6 C696.8 428.4 695.1 427.1 693.4 425.9 C691.7 424.6 690 423.4 688.2 422.2 C686.4 421.1 684.6 420 682.8 419 C681 418 679.1 417 677.2 416 C675.3 415 673.5 414.1 671.6 413.1 C669.7 412.2 667.7 411.4 665.8 410.6 C663.8 409.8 661.8 409 659.8 408.3 C657.9 407.6 655.9 406.8 653.9 406.1 C651.9 405.4 649.8 404.8 647.8 404.2 C645.8 403.6 643.7 403.1 641.7 402.6 C639.6 402.1 637.5 401.8 635.4 401.4 C633.3 401 631.2 400.7 629.1 400.4 C627 400.1 624.9 399.9 622.8 399.7 C620.7 399.4 618.6 399.3 616.5 399.1 C614.4 398.9 612.3 398.6 610.2 398.5 C608.1 398.4 606 398.4 603.9 398.4 C601.7 398.5 599.6 398.5 597.5 398.6 C595.4 398.7 593.3 398.8 591.2 399 C589.1 399.2 587 399.4 584.9 399.7 C582.8 399.9 580.7 400.2 578.6 400.5 C576.6 400.8 574.5 401.1 572.4 401.5 C570.4 401.9 568.3 402.3 566.2 402.8 C564.2 403.3 562.2 403.9 560.2 404.5 C558.2 405.1 556.1 405.7 554.2 406.3 C552.2 407 550.2 407.7 548.2 408.4 C546.3 409.1 544.3 409.8 542.4 410.6 C540.5 411.4 538.6 412.3 536.7 413.2 C534.8 414.1 533 415 531.1 416 C529.3 416.9 527.4 417.8 525.6 418.9 C523.8 419.9 522 421 520.3 422.1 C518.5 423.2 516.8 424.3 515.1 425.5 C513.4 426.6 511.7 427.8 510.1 429 C508.4 430.2 506.8 431.5 505.2 432.8 C503.6 434 502 435.3 500.4 436.6 C498.9 438 497.4 439.3 495.9 440.7 C494.4 442.1 492.9 443.6 491.5 445 C490.1 446.5 488.7 448 487.4 449.5 C486 451 484.7 452.5 483.4 454 C482.2 455.6 481 457.2 479.8 458.8 C478.5 460.4 477.3 462 476.2 463.7 C475.1 465.3 474 467 472.9 468.7 C471.9 470.4 470.9 472.1 469.9 473.8 C469 475.6 468 477.3 467.1 479.1 C466.3 480.9 465.4 482.6 464.6 484.4 C463.7 486.2 462.9 487.9 462.2 489.8 C461.4 491.6 460.7 493.4 460.1 495.2 C459.4 497 458.8 498.6 458.2 500.7 C457.6 502.8 456.7 506.5 456.4 507.7 C455.3 508 452.2 508.9 449.9 509.4 C447.7 510 445.1 510.4 442.7 511 C440.2 511.5 437.8 512.2 435.5 512.9 C433.1 513.6 430.7 514.4 428.4 515.2 C426.1 516 423.9 516.9 421.7 517.9 C419.5 518.9 417.3 519.9 415.3 521 C413.2 522.2 411.2 523.4 409.2 524.6 C407.3 525.8 405.3 527.1 403.4 528.4 C401.5 529.8 399.7 531.2 397.9 532.6 C396.1 534 394.3 535.5 392.6 537 C391 538.6 389.3 540.2 387.8 541.8 C386.2 543.4 384.7 545.1 383.2 546.8 C381.8 548.5 380.5 550.3 379.1 552.1 C377.8 553.9 376.5 555.7 375.3 557.5 C374.1 559.4 372.9 561.3 371.8 563.2 C370.7 565.1 369.7 567.1 368.8 569.1 C367.9 571 367 573 366.2 574.9 C365.4 576.8 364.7 578.6 364 580.5 C363.3 582.4 362.7 584.2 362.1 586.2 C361.5 588.3 361 590.5 360.5 592.6 C360 594.7 359.6 596.8 359.3 599 C359 601.1 358.9 603.2 358.7 605.4 C358.5 607.6 358.4 610.1 358.3 612.1 C358.3 614.1 358.2 615.6 358.2 617.6 C358.2 619.6 358.3 621.8 358.4 624.1 C358.6 626.4 358.7 628.9 359 631.4 C359.3 633.8 359.8 636.3 360.3 638.8 C360.8 641.3 361.4 643.7 362.1 646.1 C362.8 648.5 362 649.9 364.5 653.2 C366.9 656.6 373 662.6 377 666.2 C380.9 669.9 384.4 672.3 388.1 675.2 C391.8 678.2 395.5 681 399.2 683.7 C402.9 686.5 406.6 689.2 410.3 691.8 C414 694.4 417.6 696.9 421.3 699.3 C424.9 701.7 428.6 704.1 432.2 706.4 C435.8 708.7 440.4 711.8 443 713 C445.6 714.2 446.3 713.4 448 713.4 C449.7 713.5 451.3 713.5 453 713.4 C454.7 713.4 457.2 713.3 458 713.3" fill="none" stroke="#FFFFFF" stroke-opacity="0.2" stroke-width="16" filter="url(#soft)" mask="url(#leftTopOnly)"/>
    </g>
    <!-- circuit traces -->
    <path d="M675 677 C681.8 677 709.2 677 716 677 C736 677 738 657 760 657 L815 657" fill="none" stroke="url(#trace)" stroke-width="14" stroke-linecap="round" stroke-linejoin="round"/>
    <path d="M702 705 L786 705 L786 719 L719 719 Z" fill="url(#trace)"/>
    <g fill="none" stroke-width="14">
      <circle cx="802" cy="604" r="17" stroke="url(#ring1)"/>
      <circle cx="838" cy="657" r="17" stroke="url(#ring2)"/>
      <circle cx="800" cy="712" r="17" stroke="url(#ring3)"/>
    </g>
    <!-- waves -->
    <path d="M435 775 C440.8 770 455.8 754.8 470 745 C484.2 735.2 503.3 723.3 520 716 C536.7 708.7 556 703.8 570 701 C584 698.2 592 698.3 604 699 C616 699.7 629 701.2 642 705 C655 708.8 668.7 715.8 682 722 C695.3 728.2 707 736.5 722 742 C737 747.5 755.3 753.3 772 755 C788.7 756.7 813.7 752.5 822 752 C818.3 755.7 808.7 768.2 800 774 C791.3 779.8 781.7 785.3 770 787 C758.3 788.7 743.3 786.8 730 784 C716.7 781.2 703.3 775.3 690 770 C676.7 764.7 663.3 757 650 752 C636.7 747 623.3 742.8 610 740 C596.7 737.2 585 735.2 570 735 C555 734.8 535 736.3 520 739 C505 741.7 494.2 745 480 751 C465.8 757 442.5 771 435 775 Z" fill="url(#waveA)"/>
    <path d="M487 770 C492.5 768.5 508.7 763.3 520 761 C531.3 758.7 543.3 756.3 555 756 C566.7 755.7 579.2 756.7 590 759 C600.8 761.3 610 765.5 620 770 C630 774.5 640 780.8 650 786 C660 791.2 669.7 796.8 680 801 C690.3 805.2 701.5 809.2 712 811 C722.5 812.8 737.8 811.8 743 812 C740.8 813.7 736.3 819.3 730 822 C723.7 824.7 713.3 828 705 828 C696.7 828 690 825.8 680 822 C670 818.2 656.7 810.8 645 805 C633.3 799.2 622.5 792.2 610 787 C597.5 781.8 583.3 777 570 774 C556.7 771 543.8 769.7 530 769 C516.2 768.3 494.2 769.8 487 770 Z" fill="url(#waveB)"/>
  </g>
  <!-- droplet, with a thin dark gap where it meets the cloud -->
  <path d="M370 641 C377 662 405.5 684 405.5 712.5 A35.5 35.5 0 1 1 334.5 712.5 C334.5 684 363 662 370 641 Z" fill="none" stroke="#F3F8FF" stroke-width="12" stroke-linejoin="round"/>
  <path d="M370 641 C377 662 405.5 684 405.5 712.5 A35.5 35.5 0 1 1 334.5 712.5 C334.5 684 363 662 370 641 Z" fill="url(#drop)" filter="url(#glow)"/>
  <path d="M349 689 C344 700 344 714 350 724" fill="none" stroke="#FFFFFF" stroke-opacity="0.85" stroke-width="6" stroke-linecap="round"/>
  <path d="M388 721 C386 731 380 737 372 740" fill="none" stroke="#FFFFFF" stroke-opacity="0.75" stroke-width="4" stroke-linecap="round"/>

  <!-- wordmark: Montserrat Bold, outlined -->
</svg>
